<?xml version="1.0" encoding="UTF-8" standalone="no"?>
<!-- Generator: Adobe Illustrator 17.1.0, SVG Export Plug-In . SVG Version: 6.00 Build 0)  -->

<svg
   xmlns:dc="http://purl.org/dc/elements/1.1/"
   xmlns:cc="http://creativecommons.org/ns#"
   xmlns:rdf="http://www.w3.org/1999/02/22-rdf-syntax-ns#"
   xmlns:svg="http://www.w3.org/2000/svg"
   xmlns="http://www.w3.org/2000/svg"
   xmlns:sodipodi="http://sodipodi.sourceforge.net/DTD/sodipodi-0.dtd"
   xmlns:inkscape="http://www.inkscape.org/namespaces/inkscape"
   version="1.1"
   id="Capa_1"
   x="0px"
   y="0px"
   viewBox="0 0 201.119 201.119"
   style="enable-background:new 0 0 201.119 201.119;"
   xml:space="preserve"
   sodipodi:docname="surf-board-letter.svg"
   inkscape:version="0.92.4 (5da689c313, 2019-01-14)"
   inkscape:export-filename="G:\My Drive\progetti\pySurf\pysurf_logo\surf-board-wave.png"
   inkscape:export-xdpi="96"
   inkscape:export-ydpi="96"><metadata
   id="metadata39"><rdf:RDF><cc:Work
       rdf:about=""><dc:format>image/svg+xml</dc:format><dc:type
         rdf:resource="http://purl.org/dc/dcmitype/StillImage" /></cc:Work></rdf:RDF></metadata><defs
   id="defs37" /><sodipodi:namedview
   pagecolor="#ffffff"
   bordercolor="#666666"
   borderopacity="1"
   objecttolerance="10"
   gridtolerance="10"
   guidetolerance="10"
   inkscape:pageopacity="0"
   inkscape:pageshadow="2"
   inkscape:window-width="1920"
   inkscape:window-height="1001"
   id="namedview35"
   showgrid="false"
   inkscape:zoom="3.3189743"
   inkscape:cx="52.95692"
   inkscape:cy="85.928779"
   inkscape:window-x="-9"
   inkscape:window-y="-9"
   inkscape:window-maximized="1"
   inkscape:current-layer="layer2" />

<g
   id="g4">
</g>
<g
   id="g6">
</g>
<g
   id="g8">
</g>
<g
   id="g10">
</g>
<g
   id="g12">
</g>
<g
   id="g14">
</g>
<g
   id="g16">
</g>
<g
   id="g18">
</g>
<g
   id="g20">
</g>
<g
   id="g22">
</g>
<g
   id="g24">
</g>
<g
   id="g26">
</g>
<g
   id="g28">
</g>
<g
   id="g30">
</g>
<g
   id="g32">
</g>
<flowRoot
   xml:space="preserve"
   id="flowRoot3786"
   style="fill:black;fill-opacity:1;stroke:none;font-family:sans-serif;font-style:normal;font-weight:normal;font-size:40px;line-height:1.25;letter-spacing:0px;word-spacing:0px"><flowRegion
     id="flowRegion3788"><rect
       id="rect3790"
       width="137.69315"
       height="120.21786"
       x="37.662239"
       y="49.264858" /></flowRegion><flowPara
     id="flowPara3792"></flowPara></flowRoot><g
   inkscape:groupmode="layer"
   id="layer3"
   inkscape:label="tavola"
   style="display:inline"><g
     id="g3913"
     transform="rotate(45,106.33898,96.562438)"><path
       d="m 101.34961,36.917969 c -7.430471,3.71e-4 -12.411432,14.676418 -15.281251,26.988281 -3.654172,15.671664 -5.835937,36.1995 -5.835937,54.91211 3.77e-4,32.95994 6.645367,55.93251 16.929687,58.52539 0.447677,0.11285 0.921383,-0.019 1.248047,-0.3457 l 3.423824,-3.42188 3.20899,3.20899 c 0.34597,0.34596 0.85602,0.47047 1.32226,0.32422 1.44512,-0.45399 2.81291,-1.34025 4.09766,-2.625 7.41303,-7.41305 12.00622,-28.10493 12.00586,-55.66602 3.6e-4,-18.71224 -2.18177,-39.239696 -5.83594,-54.91211 -2.87056,-12.311861 -7.85161,-26.988277 -15.2832,-26.988281 z m 0,2.625 c 4.32532,-8e-6 9.08315,9.328798 12.72656,24.957031 3.61111,15.489033 5.76758,35.79507 5.76758,54.31836 7.4e-4,34.0294 -6.88982,52.33899 -13.55078,55.50391 l -3.53125,-3.53125 c -0.51264,-0.51264 -1.34283,-0.51264 -1.85547,0 l -3.785156,3.78515 c -6.997274,-2.76476 -14.26367,-21.01644 -14.263672,-55.75781 0,-18.52404 2.154509,-38.828117 5.765625,-54.316407 3.643039,-15.62712 8.40162,-24.957884 12.726563,-24.958984 z m 0.11328,7.097656 c -0.72497,-3.82e-4 -1.3125,0.58715 -1.3125,1.3125 v 92.800785 c -3.8e-4,0.72496 0.58716,1.31249 1.3125,1.3125 0.36267,-3.8e-4 0.69018,-0.1472 0.92773,-0.38477 0.23758,-0.23757 0.38477,-0.56544 0.38477,-0.92773 V 47.953125 c 3.7e-4,-0.724975 -0.58753,-1.312133 -1.3125,-1.3125 z m -0.11328,98.412105 c -0.72497,-3.7e-4 -1.31249,0.58716 -1.3125,1.3125 v 19.40625 c -3.7e-4,0.72496 0.58715,1.31249 1.3125,1.3125 0.36266,-3.8e-4 0.69016,-0.14718 0.92773,-0.38476 0.23757,-0.23757 0.38513,-0.56582 0.38477,-0.92774 v -19.40625 c 3.7e-4,-0.72497 -0.58753,-1.31213 -1.3125,-1.3125 z m -6.578126,13.24024 c -0.0034,-0.008 -0.07159,0.0925 -0.171875,0.22851 0.06789,-0.0444 0.02028,-0.0139 0.117188,-0.0781 0.03817,-0.0983 0.05699,-0.1452 0.05469,-0.15039 z m 0.136719,0.16211 c -0.148154,0.0646 -0.172132,0.0799 -0.275391,0.1289 0.103594,-0.0143 0.118199,-0.0168 0.275391,-0.10742 4.3e-5,-0.007 -4.3e-5,-0.0143 0,-0.0215 z m -1.693359,1.46094 c -0.0095,0.007 -0.01792,0.0147 -0.02734,0.0215 -0.01521,0.0212 -0.03132,0.0416 -0.04687,0.0625 l -0.002,0.01 c 0.03959,-0.0448 0.109104,-0.11708 0.07617,-0.0937 z"
       style="stroke-width:0.52496761"
       id="path2"
       inkscape:connector-curvature="0" /><path
       inkscape:connector-curvature="0"
       id="path3784"
       d="m 95.643402,173.51761 c -4.489471,-3.25216 -8.27011,-12.48292 -10.473042,-25.57086 -4.796227,-28.49508 -1.054833,-74.962845 7.854662,-97.554186 2.06162,-5.227543 4.682058,-9.18674 6.807958,-10.286086 6.35344,-3.285492 14.02185,16.148527 17.67146,44.784696 2.7061,21.233066 2.82725,44.987096 0.314,61.568576 -1.77625,11.71906 -5.03709,21.12941 -8.77485,25.32309 -2.37849,2.66861 -2.37621,2.66843 -4.76886,0.35853 -1.12965,-1.09059 -2.21713,-1.98289 -2.41662,-1.98289 -0.19949,0 -1.3415,0.94909 -2.537812,2.10909 -1.19631,1.15999 -2.246189,2.10908 -2.333065,2.10908 -0.08688,0 -0.6916,-0.38657 -1.343831,-0.85904 z m 6.759868,-6.73367 c 0.26712,-0.26712 0.36155,-3.05506 0.36155,-10.67455 0,-8.97372 -0.0615,-10.37448 -0.47347,-10.78646 -0.58591,-0.58592 -1.04906,-0.59776 -1.804,-0.0461 -0.555438,0.40588 -0.589241,0.9305 -0.672005,10.42962 -0.07545,8.66009 -0.02398,10.09864 0.383565,10.72065 0.50691,0.77364 1.60913,0.95207 2.20436,0.35684 z m 0.0243,-25.05479 c 0.24886,-0.29985 0.31883,-12.99276 0.26287,-47.680397 l -0.0763,-47.271764 -0.84679,-0.0971 c -1.840939,-0.211088 -1.71424,-3.735058 -1.71424,47.678796 0,36.197365 0.0834,47.139405 0.36156,47.417535 0.48458,0.48458 1.59316,0.45866 2.01287,-0.0471 z"
       style="fill:#ff0000;stroke-width:0.3012979" /></g><path
     style="fill:#d40000;fill-opacity:1;stroke-width:0.3012979"
     d="m 53.045187,142.72885 c -0.198856,-0.19885 -0.361557,-0.56523 -0.361557,-0.81416 0,-0.24894 3.220121,-3.68429 7.155825,-7.63412 5.964119,-5.98552 7.281268,-7.16708 7.90907,-7.0949 0.534413,0.0614 0.782968,0.29692 0.855555,0.81054 0.0845,0.59793 -1.147396,1.97445 -7.078147,7.90907 -3.949251,3.95182 -7.391671,7.18513 -7.649822,7.18513 -0.258152,0 -0.632067,-0.1627 -0.830924,-0.36156 z"
     id="path4039"
     inkscape:connector-curvature="0" /><path
     style="fill:#ffff00;fill-opacity:1;stroke-width:0.3012979"
     d="m 70.979697,125.27332 c -0.28572,-0.1599 -0.519491,-0.52271 -0.519491,-0.80625 0,-0.54891 65.378094,-66.044478 66.490584,-66.610059 0.51871,-0.263707 0.75653,-0.234479 1.12987,0.13886 0.26008,0.260079 0.47287,0.566042 0.47287,0.679919 0,0.310229 -65.815405,66.22519 -66.480663,66.58122 -0.37307,0.19966 -0.755339,0.20536 -1.09317,0.0163 z"
     id="path4041"
     inkscape:connector-curvature="0" /><path
     style="fill:#ffff00;fill-opacity:1;stroke-width:0.3012979"
     d="m 53.157098,142.61694 c -0.670278,-0.67028 -0.597228,-0.75772 6.976772,-8.35115 5.878826,-5.89391 7.564828,-7.29443 8.116818,-6.74244 0.554735,0.55474 -0.856413,2.25525 -6.744028,8.12695 -7.57298,7.55251 -7.676947,7.63926 -8.349562,6.96664 z"
     id="path4043"
     inkscape:connector-curvature="0" /><path
     style="fill:#aa0000;fill-opacity:1;stroke-width:0.3012979"
     d="m 52.005468,154.23217 c -0.705583,-0.14543 -1.654672,-0.44225 -2.109085,-0.6596 -0.801528,-0.38338 -0.82879,-0.47801 -0.912695,-3.16816 l -0.08649,-2.77298 -2.926491,-0.0861 -2.92649,-0.0861 -0.602596,-1.20519 c -0.510598,-1.0212 -0.599367,-1.78018 -0.581446,-4.97142 0.01922,-3.42205 0.110098,-4.0278 0.994474,-6.62855 3.972883,-11.68337 15.64131,-27.38132 32.45396,-43.661448 17.817954,-17.253598 39.303321,-32.947806 53.153561,-38.826578 5.16808,-2.193604 7.79555,-2.889147 10.99738,-2.911229 2.43195,-0.01677 2.85661,0.06649 4.11662,0.807201 3.47197,2.041014 3.97932,6.299737 1.59999,13.430393 -6.08843,18.246523 -31.98961,51.466641 -56.033364,71.866781 -8.256087,7.00496 -15.395835,11.89709 -22.296045,15.2772 -6.23466,3.05408 -11.398977,4.30531 -14.841285,3.59578 z m 7.842415,-3.20117 c 6.593882,-2.08301 15.385476,-7.33388 24.306407,-14.51727 24.68434,-19.87652 52.43356,-54.760155 59.00164,-74.171158 0.87505,-2.586091 1.07539,-3.631159 1.09743,-5.724661 0.0232,-2.204829 -0.068,-2.69421 -0.65604,-3.518557 -5.34724,-7.496619 -38.86305,12.448169 -66.92304,39.824955 -14.262669,13.915401 -23.905143,26.086081 -29.122567,36.758341 -2.397974,4.90507 -3.481834,8.50844 -3.534477,11.75062 -0.06123,3.77118 -0.132377,3.69212 3.431961,3.81367 3.789488,0.12923 3.880714,0.22105 3.880714,3.90606 0,2.48564 0.03798,2.64149 0.67792,2.78218 1.427997,0.31395 5.45368,-0.15033 7.840052,-0.90418 z"
     id="path4049"
     inkscape:connector-curvature="0" /></g><g
   inkscape:groupmode="layer"
   id="layer2"
   inkscape:label="scritta"
   style="display:inline"><text
     xml:space="preserve"
     style="font-style:normal;font-variant:normal;font-weight:normal;font-stretch:normal;font-size:101.89041901px;line-height:1.25;font-family:'Apple Chancery';-inkscape-font-specification:'Apple Chancery, Normal';font-variant-ligatures:normal;font-variant-caps:normal;font-variant-numeric:normal;font-feature-settings:normal;text-align:start;letter-spacing:0px;word-spacing:0px;writing-mode:lr-tb;text-anchor:start;fill:#000000;fill-opacity:1;stroke:none;stroke-width:2.54727268"
     x="69.914246"
     y="153.71695"
     id="text3796"
     transform="scale(1.0175491,0.98275356)"><tspan
       sodipodi:role="line"
       id="tspan3794"
       x="69.914246"
       y="153.71695"
       style="font-style:normal;font-variant:normal;font-weight:normal;font-stretch:normal;font-size:101.89041901px;font-family:'Apple Chancery';-inkscape-font-specification:'Apple Chancery, Normal';font-variant-ligatures:normal;font-variant-caps:normal;font-variant-numeric:normal;font-feature-settings:normal;text-align:start;writing-mode:lr-tb;text-anchor:start;stroke-width:2.54727268">X</tspan></text>
<flowRoot
     xml:space="preserve"
     id="flowRoot4053"
     style="font-style:normal;font-weight:normal;font-size:40px;line-height:1.25;font-family:sans-serif;letter-spacing:0px;word-spacing:0px;fill:#000000;fill-opacity:1;stroke:none"><flowRegion
       id="flowRegion4055"><rect
         id="rect4057"
         width="60.259583"
         height="40.07262"
         x="12.353214"
         y="114.04391" /></flowRegion><flowPara
       id="flowPara4059">py</flowPara></flowRoot><text
     xml:space="preserve"
     style="font-style:normal;font-weight:normal;font-size:40px;line-height:1.25;font-family:sans-serif;letter-spacing:0px;word-spacing:0px;display:inline;fill:#000000;fill-opacity:1;stroke:none"
     x="49.028431"
     y="129.43607"
     id="text4063"><tspan
       sodipodi:role="line"
       id="tspan4061"
       x="49.028431"
       y="129.43607"
       style="font-style:normal;font-variant:normal;font-weight:bold;font-stretch:normal;font-size:40px;font-family:'Berlin Sans FB Demi';-inkscape-font-specification:'Berlin Sans FB Demi, Bold';font-variant-ligatures:normal;font-variant-caps:normal;font-variant-numeric:normal;font-feature-settings:normal;text-align:start;writing-mode:lr-tb;text-anchor:start">py</tspan></text>
</g></svg>