<svg xmlns="http://www.w3.org/2000/svg" viewBox="99.58500291748047 137.15750122070312 375.8300018310547 300.68500366210935"> <svg version="1.1" id="Layer_1" xmlns="http://www.w3.org/2000/svg" xmlns:xlink="http://www.w3.org/1999/xlink" x="172.5075225830078" y="207.15750122070312" viewBox="23.80078125 194 547.328125 207.69921875" xml:space="preserve" height="87.28334045410156" width="230" preserveAspectRatio="xMinYMin" enable-background="new 0 0 595.3 595.3" style="overflow: visible;"><path class="st0" d="M24.4,345.7c3.1,0.5,6.2,0.4,9.3,0c3.1-0.5,6.1-1.4,9-2.6c5.8-2.4,11.1-5.8,16.3-9.3c2.6-1.8,5.2-3.6,7.8-5.4   c2.6-1.8,5.2-3.6,7.9-5.4c5.3-3.5,10.6-7,16-10.4c2.7-1.7,5.4-3.4,8.1-5c2.7-1.7,5.4-3.3,8.2-4.9c5.5-3.2,11-6.4,16.6-9.4   c5.6-3,11.3-6,17.2-8.5l2.2-1c0.7-0.3,1.5-0.6,2.2-0.9c1.5-0.6,3-1.2,4.5-1.7c0.8-0.3,1.5-0.5,2.3-0.8l2.3-0.8l2.3-0.7   c0.8-0.2,1.6-0.5,2.3-0.6c6.3-1.6,12.8-2.7,19.3-2.8c6.6-0.2,13.1,0.6,19.5,1.9c6.4,1.4,12.6,3.4,18.6,5.8c6,2.4,11.8,5.2,17.5,8.2   c5.7,3,11.2,6.1,16.7,9.3l8.2,4.8c2.7,1.6,5.5,3.2,8.2,4.7c5.5,3,11.1,5.9,16.7,8.5c5.7,2.6,11.5,4.8,17.4,6.6   c5.9,1.8,11.9,3,18,3.5c6.1,0.5,12.1,0.2,18.1-0.9c3-0.6,5.9-1.4,8.7-2.4l2.1-0.8c0.4-0.1,0.7-0.3,1.1-0.4l1-0.5l2.1-0.9l2.1-1   l1-0.5l1-0.5l2-1.1l2-1.2l1-0.6c0.3-0.2,0.7-0.4,1-0.6l2-1.2c0.7-0.4,1.3-0.9,1.9-1.3c1.3-0.8,2.6-1.7,3.8-2.6   c10.2-7.2,19.7-15.5,30.1-23.2c2.6-1.9,5.2-3.8,7.9-5.5c1.3-0.9,2.7-1.7,4.1-2.6c0.3-0.2,0.7-0.4,1-0.6l1.1-0.6l1.1-0.6   c0.4-0.2,0.7-0.4,1.1-0.6c5.8-3.1,11.9-5.7,18.3-7.1l1.2-0.3c0.4-0.1,0.8-0.2,1.2-0.3l2.4-0.4c0.4-0.1,0.8-0.2,1.2-0.2l1.2-0.1   c0.8-0.1,1.6-0.2,2.5-0.2c3.3-0.2,6.6-0.2,9.9,0c6.6,0.5,13,2,19.1,4.1c6.2,2.1,12,4.8,17.7,7.9c5.7,3.1,11.1,6.5,16.3,10.2   c5.2,3.7,10.3,7.5,15.3,11.3c5,3.8,10.1,7.6,15.2,11.3c5.1,3.7,10.4,7.1,15.9,10.2c0.7,0.4,1.4,0.8,2.1,1.1l2.1,1.1l0.5,0.3   l0.5,0.3l1.1,0.5l2.1,1c1.4,0.7,2.9,1.3,4.3,1.9c1.5,0.6,2.9,1.1,4.4,1.7l0,0c0.2,0.1,0.4,0.4,0.3,0.6c-0.1,0.2-0.3,0.3-0.6,0.3   c-6.1-1.8-12-4.3-17.7-7.2c-5.7-2.9-11.1-6.2-16.5-9.7c-5.3-3.5-10.5-7.2-15.7-10.8c-5.2-3.7-10.3-7.3-15.6-10.8   c-5.2-3.5-10.6-6.7-16.2-9.5c-5.5-2.9-11.3-5.3-17.2-7.2c-5.9-1.9-11.9-3.2-18-3.5c-3-0.2-6.1-0.2-9.1,0.1   c-0.8,0.1-1.5,0.1-2.3,0.3l-1.1,0.2c-0.4,0-0.7,0.1-1.1,0.2l-2.2,0.4c-0.4,0.1-0.7,0.2-1.1,0.3l-1.1,0.3   c-5.9,1.5-11.5,3.9-16.9,6.9c-5.4,3-10.5,6.5-15.5,10.3c-10,7.5-19.5,16-30,23.5c-1.3,0.9-2.6,1.9-4,2.8c-0.7,0.4-1.3,0.9-2,1.3   l-2.1,1.3c-0.3,0.2-0.7,0.4-1,0.6l-1.1,0.6l-2.1,1.2l-2.2,1.2l-1.1,0.6l-1.1,0.5l-2.2,1.1l-2.3,1l-1.1,0.5   c-0.4,0.2-0.8,0.3-1.2,0.4l-2.3,0.9c-3.1,1-6.3,2-9.6,2.6c-6.5,1.3-13.2,1.6-19.8,1c-6.6-0.6-13-1.9-19.2-3.8   c-6.2-1.9-12.3-4.3-18.1-6.9c-5.9-2.7-11.6-5.7-17.1-8.8c-2.8-1.6-5.6-3.2-8.3-4.8l-8.2-4.8c-5.4-3.2-10.9-6.4-16.4-9.3   c-5.5-2.9-11.1-5.7-16.9-8.1c-5.7-2.4-11.6-4.4-17.6-5.7c-6-1.4-12.1-2.1-18.2-2.1c-6.1,0.1-12.2,1-18.2,2.4   c-0.8,0.2-1.5,0.4-2.2,0.6l-2.2,0.6l-2.2,0.7c-0.7,0.2-1.5,0.5-2.2,0.7c-1.5,0.5-2.9,1-4.4,1.6c-0.7,0.3-1.5,0.5-2.2,0.8l-2.2,0.9   c-5.8,2.4-11.4,5.1-17,8c-5.6,2.9-11.2,5.9-16.7,9c-2.8,1.5-5.5,3.1-8.2,4.7c-2.7,1.6-5.5,3.2-8.2,4.8c-5.4,3.2-10.8,6.5-16.2,9.9   c-2.7,1.7-5.3,3.4-8,5.1c-2.7,1.7-5.3,3.5-8,5.2c-2.7,1.7-5.4,3.4-8.2,4.9c-2.8,1.5-5.7,2.9-8.7,4c-3,1.1-6.1,2-9.3,2.3   c-3.2,0.4-6.5,0.3-9.6-0.4c-0.2,0-0.3-0.2-0.3-0.4C24,345.8,24.2,345.7,24.4,345.7L24.4,345.7z" style="fill: #f00400;"></path><path class="st1" d="M85.3,337.8c0,1.4,1.1,2.5,2.5,2.5s2.5-1.1,2.5-2.5v-14.1c-1.7,1.1-3.4,2.1-5.1,3.2V337.8z" style="fill: #666666;"></path><path class="st1" d="M90.3,257.3c0-1.4-1.1-2.5-2.5-2.5s-2.5,1.1-2.5,2.5v51.3c1.7-1,3.4-2.1,5.1-3.1V257.3z" style="fill: #666666;"></path><path class="st1" d="M73.2,277.5c0-1.4-1.1-2.5-2.5-2.5c-1.4,0-2.5,1.1-2.5,2.5V317c0,0.8,0.4,1.5,0.9,2c1.4-0.9,2.8-1.8,4.2-2.7    V277.5z" style="fill: #666666;"></path><path class="st1" d="M107.5,239.8c0-1.4-1.1-2.5-2.5-2.5c-1.4,0-2.5,1.1-2.5,2.5v58.7c1.7-1,3.4-1.9,5.1-2.9V239.8z" style="fill: #666666;"></path><path class="st1" d="M102.4,355.5c0,1.4,1.1,2.5,2.5,2.5c1.4,0,2.5-1.1,2.5-2.5v-42.1c-1.7,1-3.4,2-5.1,3V355.5z" style="fill: #666666;"></path><path class="st1" d="M53.6,308.1c1.4,0,2.5-1.1,2.5-2.5v-17.2c0-1.4-1.1-2.5-2.5-2.5c-1.4,0-2.5,1.1-2.5,2.5v17.2    C51.1,306.9,52.2,308.1,53.6,308.1z" style="fill: #666666;"></path><path class="st1" d="M124.6,255c0-1.4-1.1-2.5-2.5-2.5s-2.5,1.1-2.5,2.5v33.9c1.7-0.9,3.4-1.8,5.1-2.7V255z" style="fill: #666666;"></path><path class="st1" d="M119.5,306.6v33.5c0,1.4,1.1,2.5,2.5,2.5s2.5-1.1,2.5-2.5v-36.3c-0.6,0.3-1.2,0.6-1.8,1    C121.7,305.4,120.6,306,119.5,306.6z" style="fill: #666666;"></path><path class="st1" d="M141.7,268.1c0-1.4-1.1-2.5-2.5-2.5c-1.4,0-2.5,1.1-2.5,2.5v12.3c1.7-0.7,3.4-1.4,5.1-2.1V268.1z" style="fill: #666666;"></path><path class="st1" d="M136.6,326.6c0,1.4,1.1,2.5,2.5,2.5c1.4,0,2.5-1.1,2.5-2.5v-31.4c-1.7,0.8-3.4,1.6-5.1,2.4V326.6z" style="fill: #666666;"></path><path class="st1" d="M153.7,314.7c0,1.4,1.1,2.5,2.5,2.5c1.4,0,2.5-1.1,2.5-2.5v-25.9c-1.7,0.5-3.4,1-5.1,1.6V314.7z" style="fill: #666666;"></path><path class="st1" d="M175.9,257.5c0-1.4-1.1-2.5-2.5-2.5s-2.5,1.1-2.5,2.5v13.2c1.7-0.2,3.4-0.3,5.1-0.4V257.5z" style="fill: #666666;"></path><path class="st1" d="M170.8,337.4c0,1.4,1.1,2.5,2.5,2.5s2.5-1.1,2.5-2.5v-51.5c-1.7,0.1-3.4,0.2-5.1,0.5V337.4z" style="fill: #666666;"></path><path class="st1" d="M187.9,355.6c0,1.4,1.1,2.5,2.5,2.5c1.4,0,2.5-1.1,2.5-2.5v-68.5c-1.7-0.3-3.4-0.6-5.1-0.8V355.6z" style="fill: #666666;"></path><path class="st1" d="M193,239.8c0-1.4-1.1-2.5-2.5-2.5c-1.4,0-2.5,1.1-2.5,2.5v30.8c1.7,0.2,3.4,0.4,5.1,0.7V239.8z" style="fill: #666666;"></path><path class="st1" d="M210.1,263.8c0-1.4-1.1-2.5-2.5-2.5c-1.4,0-2.5,1.1-2.5,2.5V274c1.7,0.5,3.4,1,5.1,1.6V263.8z" style="fill: #666666;"></path><path class="st1" d="M205,330.8c0,1.4,1.1,2.5,2.5,2.5c1.4,0,2.5-1.1,2.5-2.5v-38.8c-1.7-0.6-3.4-1.3-5.1-1.8V330.8z" style="fill: #666666;"></path><path class="st1" d="M227.2,252.1c0-1.4-1.1-2.5-2.5-2.5c-1.4,0-2.5,1.1-2.5,2.5v28.1c1.7,0.7,3.4,1.5,5.1,2.3V252.1z" style="fill: #666666;"></path><path class="st1" d="M222.1,339.1c0,1.4,1.1,2.5,2.5,2.5c1.4,0,2.5-1.1,2.5-2.5v-39.3c-1.7-0.9-3.4-1.7-5.1-2.6V339.1z" style="fill: #666666;"></path><path class="st1" d="M239.2,327.7c0,1.4,1.1,2.5,2.5,2.5c1.4,0,2.5-1.1,2.5-2.5v-18.2c-1.7-1-3.4-2-5.1-2.9V327.7z" style="fill: #666666;"></path><path class="st1" d="M244.3,266.6c0-1.4-1.1-2.5-2.5-2.5c-1.4,0-2.5,1.1-2.5,2.5v22.1c1.7,0.9,3.4,1.9,5.1,2.8V266.6z" style="fill: #666666;"></path><path class="st1" d="M256.3,358.4c0,1.4,1.1,2.5,2.5,2.5c1.4,0,2.5-1.1,2.5-2.5v-39c-1.8-1-3.4-1.9-5.1-2.9V358.4z" style="fill: #666666;"></path><path class="st1" d="M261.4,301.5v-64.3c0-1.4-1.1-2.5-2.5-2.5c-1.4,0-2.5,1.1-2.5,2.5v61.3c0.4,0.2,0.8,0.5,1.2,0.7    C258.8,300,260.1,300.7,261.4,301.5z" style="fill: #666666;"></path><path class="st1" d="M273.4,376c0,1.4,1.1,2.5,2.5,2.5c1.4,0,2.5-1.1,2.5-2.5v-47.8c-1.7-0.8-3.4-1.6-5.1-2.4V376z" style="fill: #666666;"></path><path class="st1" d="M278.5,217.8c0-1.4-1.1-2.5-2.5-2.5c-1.4,0-2.5,1.1-2.5,2.5v90.5c1.7,0.9,3.4,1.8,5.1,2.6V217.8z" style="fill: #666666;"></path><path class="st1" d="M290.6,333.1v66.1c0,1.4,1.1,2.5,2.5,2.5s2.5-1.1,2.5-2.5v-64.3c-0.1,0-0.3-0.1-0.4-0.1    C293.7,334.2,292.1,333.7,290.6,333.1z" style="fill: #666666;"></path><path class="st1" d="M295.6,196.5c0-1.4-1.1-2.5-2.5-2.5s-2.5,1.1-2.5,2.5v120c1.7,0.7,3.4,1.4,5.1,2V196.5z" style="fill: #666666;"></path><path class="st1" d="M500.9,257.3c0-1.4-1.1-2.5-2.5-2.5c-1.4,0-2.5,1.1-2.5,2.5V278c1.7,0.9,3.4,1.9,5.1,2.9V257.3z" style="fill: #666666;"></path><path class="st1" d="M495.8,337.8c0,1.4,1.1,2.5,2.5,2.5c1.4,0,2.5-1.1,2.5-2.5v-38.5c-1.7-1.1-3.4-2.2-5.1-3.3V337.8z" style="fill: #666666;"></path><path class="st1" d="M518,292.3v-14.9c0-1.4-1.1-2.5-2.5-2.5c-1.4,0-2.5,1.1-2.5,2.5v11.3c0.1,0.1,0.1,0.1,0.2,0.1    C514.8,290,516.4,291.2,518,292.3z" style="fill: #666666;"></path><path class="st1" d="M512.9,307.8v9.2c0,1.4,1.1,2.5,2.5,2.5c1.4,0,2.5-1.1,2.5-2.5v-5.5c-0.3-0.2-0.5-0.4-0.8-0.6    C515.8,309.9,514.4,308.9,512.9,307.8z" style="fill: #666666;"></path><path class="st1" d="M483.8,272.1v-32.4c0-1.4-1.1-2.5-2.5-2.5c-1.4,0-2.5,1.1-2.5,2.5v30.4c0.1,0,0.2,0.1,0.3,0.1    C480.6,270.8,482.2,271.5,483.8,272.1z" style="fill: #666666;"></path><path class="st1" d="M478.7,355.5c0,1.4,1.1,2.5,2.5,2.5c1.4,0,2.5-1.1,2.5-2.5v-66.3c-1.7-0.9-3.4-1.7-5.1-2.4V355.5z" style="fill: #666666;"></path><path class="st1" d="M535.1,288.4c0-1.4-1.1-2.5-2.5-2.5s-2.5,1.1-2.5,2.5v12.8c1.7,1.2,3.4,2.5,5.1,3.7V288.4z" style="fill: #666666;"></path><path class="st1" d="M461.6,340.1c0,1.4,1.1,2.5,2.5,2.5c1.4,0,2.5-1.1,2.5-2.5v-57.6c-1.7-0.5-3.4-0.9-5.1-1.2V340.1z" style="fill: #666666;"></path><path class="st1" d="M466.7,255c0-1.4-1.1-2.5-2.5-2.5c-1.4,0-2.5,1.1-2.5,2.5v10.6c1.7,0.3,3.4,0.6,5.1,1V255z" style="fill: #666666;"></path><path class="st1" d="M444.5,326.6c0,1.4,1.1,2.5,2.5,2.5s2.5-1.1,2.5-2.5V280c-1.7,0-3.4,0.1-5.1,0.3V326.6z" style="fill: #666666;"></path><path class="st1" d="M427.4,314.7c0,1.4,1.1,2.5,2.5,2.5c1.4,0,2.5-1.1,2.5-2.5v-31.8c-1.7,0.6-3.4,1.2-5.1,2V314.7z" style="fill: #666666;"></path><path class="st1" d="M415.4,257.5c0-1.4-1.1-2.5-2.5-2.5c-1.4,0-2.5,1.1-2.5,2.5v18.9c1.7-1,3.4-1.9,5.1-2.8V257.5z" style="fill: #666666;"></path><path class="st1" d="M410.3,337.4c0,1.4,1.1,2.5,2.5,2.5c1.4,0,2.5-1.1,2.5-2.5v-46c-1.7,1.1-3.4,2.2-5.1,3.4V337.4z" style="fill: #666666;"></path><path class="st1" d="M393.2,308v47.6c0,1.4,1.1,2.5,2.5,2.5s2.5-1.1,2.5-2.5V304C396.6,305.3,394.9,306.6,393.2,308    C393.2,308,393.2,308,393.2,308z" style="fill: #666666;"></path><path class="st1" d="M398.3,239.8c0-1.4-1.1-2.5-2.5-2.5s-2.5,1.1-2.5,2.5v48.4c1.7-1.3,3.4-2.6,5.1-3.8V239.8z" style="fill: #666666;"></path><path class="st1" d="M376.1,330.8c0,1.4,1.1,2.5,2.5,2.5c1.4,0,2.5-1.1,2.5-2.5v-13.3c-1.7,1.3-3.4,2.5-5.1,3.7V330.8z" style="fill: #666666;"></path><path class="st1" d="M381.2,263.8c0-1.4-1.1-2.5-2.5-2.5c-1.4,0-2.5,1.1-2.5,2.5v38c1.7-1.3,3.4-2.7,5.1-4V263.8z" style="fill: #666666;"></path><path class="st1" d="M359,339.1c0,1.4,1.1,2.5,2.5,2.5c1.4,0,2.5-1.1,2.5-2.5v-10.2c-1.7,0.9-3.4,1.8-5.1,2.7V339.1z" style="fill: #666666;"></path><path class="st1" d="M364.1,252.1c0-1.4-1.1-2.5-2.5-2.5c-1.4,0-2.5,1.1-2.5,2.5v61.9c1.7-1,3.4-2.1,5.1-3.3V252.1z" style="fill: #666666;"></path><path class="st1" d="M347,266.6c0-1.4-1.1-2.5-2.5-2.5s-2.5,1.1-2.5,2.5v55.2c1.7-0.5,3.4-1.1,5.1-1.8V266.6z" style="fill: #666666;"></path><path class="st1" d="M324.8,339.8v18.6c0,1.4,1.1,2.5,2.5,2.5c1.4,0,2.5-1.1,2.5-2.5v-18.7C328.2,339.8,326.5,339.8,324.8,339.8z" style="fill: #666666;"></path><path class="st1" d="M329.8,324.1v-86.9c0-1.4-1.1-2.5-2.5-2.5c-1.4,0-2.5,1.1-2.5,2.5v87.1C326.5,324.3,328.2,324.2,329.8,324.1z    " style="fill: #666666;"></path><path class="st1" d="M312.7,217.8c0-1.4-1.1-2.5-2.5-2.5c-1.4,0-2.5,1.1-2.5,2.5v104.4c1.7,0.4,3.4,0.8,5.1,1.1V217.8z" style="fill: #666666;"></path><path class="st1" d="M307.7,376c0,1.4,1.1,2.5,2.5,2.5c1.4,0,2.5-1.1,2.5-2.5v-37.1c-1.7-0.2-3.4-0.5-5.1-0.9V376z" style="fill: #666666;"></path></svg> <svg y="305.6825012207031" viewBox="5.489999771118164 6.099999904632568 235.8300018310547 62.160003662109375" x="169.58500291748047" height="62.160003662109375" width="235.8300018310547" xmlns="http://www.w3.org/2000/svg" style="overflow: visible;"><g fill="#f00400" fill-opacity="1" style=""><path d="M7.87 68.02L7.87 68.02Q6.77 68.02 6.13 67.37Q5.49 66.73 5.49 65.64L5.49 65.64L5.49 36.84Q5.55 32.09 7.78 28.27Q10.00 24.46 13.82 22.27Q17.63 20.07 22.39 20.07L22.39 20.07Q27.27 20.07 31.11 22.30Q34.95 24.52 37.18 28.37Q39.41 32.21 39.41 37.09L39.41 37.09Q39.41 41.91 37.24 45.75Q35.07 49.59 31.35 51.82Q27.63 54.05 22.94 54.05L22.94 54.05Q18.85 54.05 15.52 52.31Q12.20 50.57 10.19 47.70L10.19 47.70L10.19 65.64Q10.19 66.73 9.55 67.37Q8.91 68.02 7.87 68.02ZM22.39 49.78L22.39 49.78Q25.93 49.78 28.73 48.13Q31.54 46.48 33.15 43.58Q34.77 40.69 34.77 37.09L34.77 37.09Q34.77 33.43 33.15 30.56Q31.54 27.69 28.73 26.02Q25.93 24.34 22.39 24.34L22.39 24.34Q18.91 24.34 16.10 26.02Q13.30 27.69 11.71 30.56Q10.13 33.43 10.13 37.09L10.13 37.09Q10.13 40.69 11.71 43.58Q13.30 46.48 16.10 48.13Q18.91 49.78 22.39 49.78ZM52.52 68.26L52.52 68.26Q52.03 68.26 51.42 68.02L51.42 68.02Q49.35 67.10 50.26 65.09L50.26 65.09L69.97 21.66Q70.88 19.70 72.90 20.56L72.90 20.56Q74.97 21.41 74.05 23.42L74.05 23.42L54.29 66.86Q53.68 68.26 52.52 68.26ZM59.29 52.70L59.29 52.70Q58.38 53.13 57.58 52.86Q56.79 52.58 56.30 51.67L56.30 51.67L42.70 23.48Q42.27 22.57 42.58 21.78Q42.88 20.98 43.80 20.56L43.80 20.56Q44.71 20.13 45.51 20.40Q46.30 20.68 46.73 21.59L46.73 21.59L60.09 49.78Q60.57 50.69 60.39 51.48Q60.21 52.28 59.29 52.70ZM78.63 53.74L78.63 53.74Q77.59 53.74 77.01 53.13Q76.43 52.52 76.37 51.61Q76.31 50.69 76.92 49.90L76.92 49.90L92.84 28.18L95.04 26.41L109.31 6.95Q109.98 6.10 111.14 6.10L111.14 6.10Q112.12 6.10 112.70 6.74Q113.28 7.38 113.34 8.27Q113.40 9.15 112.91 9.82L112.91 9.82L97.91 30.20L95.83 31.90L80.34 53.01Q79.67 53.74 78.63 53.74ZM111.63 53.74L111.63 53.74Q111.14 53.74 110.65 53.53Q110.17 53.31 109.80 52.89L109.80 52.89L94.61 31.84L92.72 30.44L77.90 9.82Q77.35 9.09 77.41 8.20Q77.47 7.32 78.05 6.71Q78.63 6.10 79.60 6.10L79.60 6.10Q80.76 6.10 81.44 6.95L81.44 6.95L95.77 26.78L97.48 27.94L113.34 49.90Q113.89 50.63 113.86 51.55Q113.83 52.46 113.25 53.10Q112.67 53.74 111.63 53.74ZM133.77 54.05L133.77 54.05Q130.17 54.05 126.64 52.83Q123.10 51.61 120.90 49.17L120.90 49.17Q120.23 48.43 120.35 47.52Q120.48 46.60 121.27 45.93L121.27 45.93Q122.12 45.32 123.04 45.45Q123.95 45.57 124.56 46.24L124.56 46.24Q126.03 47.95 128.44 48.86Q130.84 49.78 133.77 49.78L133.77 49.78Q138.29 49.78 140.30 48.22Q142.31 46.66 142.37 44.47L142.37 44.47Q142.37 42.27 140.30 40.84Q138.23 39.41 133.47 38.61L133.47 38.61Q127.31 37.64 124.44 35.20Q121.57 32.76 121.57 29.40L121.57 29.40Q121.57 26.29 123.22 24.22Q124.87 22.14 127.61 21.11Q130.36 20.07 133.65 20.07L133.65 20.07Q137.74 20.07 140.70 21.47Q143.66 22.88 145.49 25.25L145.49 25.25Q146.09 26.05 145.97 26.90Q145.85 27.75 145.00 28.30L145.00 28.30Q144.27 28.73 143.32 28.58Q142.37 28.43 141.70 27.69L141.70 27.69Q140.18 25.93 138.17 25.10Q136.15 24.28 133.53 24.28L133.53 24.28Q130.17 24.28 128.16 25.65Q126.15 27.02 126.15 29.10L126.15 29.10Q126.15 30.50 126.91 31.54Q127.67 32.57 129.53 33.37Q131.39 34.16 134.75 34.71L134.75 34.71Q139.32 35.44 141.98 36.87Q144.63 38.31 145.76 40.23Q146.89 42.15 146.89 44.41L146.89 44.41Q146.89 47.27 145.21 49.44Q143.53 51.61 140.57 52.83Q137.62 54.05 133.77 54.05ZM169.52 54.11L169.52 54.11Q165.19 54.11 161.77 52.31Q158.36 50.51 156.37 47.03Q154.39 43.55 154.39 38.55L154.39 38.55L154.39 22.69Q154.39 21.72 155.06 21.05Q155.73 20.37 156.71 20.37L156.71 20.37Q157.75 20.37 158.42 21.05Q159.09 21.72 159.09 22.69L159.09 22.69L159.09 38.55Q159.09 42.33 160.52 44.77Q161.95 47.21 164.43 48.43Q166.90 49.65 170.01 49.65L170.01 49.65Q173.00 49.65 175.41 48.49Q177.81 47.34 179.22 45.32Q180.62 43.31 180.62 40.75L180.62 40.75L183.98 40.75Q183.79 44.59 181.87 47.61Q179.95 50.63 176.72 52.37Q173.48 54.11 169.52 54.11ZM182.94 53.74L182.94 53.74Q181.90 53.74 181.26 53.10Q180.62 52.46 180.62 51.36L180.62 51.36L180.62 22.69Q180.62 21.66 181.26 21.01Q181.90 20.37 182.94 20.37L182.94 20.37Q183.98 20.37 184.65 21.01Q185.32 21.66 185.32 22.69L185.32 22.69L185.32 51.36Q185.32 52.46 184.65 53.10Q183.98 53.74 182.94 53.74ZM200.93 33.18L198.25 33.18Q198.43 29.40 200.23 26.41Q202.03 23.42 204.93 21.72Q207.83 20.01 211.36 20.01L211.36 20.01Q214.17 20.01 215.70 20.80Q217.22 21.59 216.85 23.12L216.85 23.12Q216.61 24.03 216.03 24.34Q215.45 24.64 214.63 24.58Q213.81 24.52 212.77 24.46L212.77 24.46Q209.35 24.16 206.70 25.16Q204.04 26.17 202.49 28.24Q200.93 30.32 200.93 33.18L200.93 33.18ZM198.62 53.74L198.62 53.74Q197.52 53.74 196.91 53.13Q196.30 52.52 196.30 51.42L196.30 51.42L196.30 22.69Q196.30 21.59 196.91 20.98Q197.52 20.37 198.62 20.37L198.62 20.37Q199.71 20.37 200.32 20.98Q200.93 21.59 200.93 22.69L200.93 22.69L200.93 51.42Q200.93 52.52 200.32 53.13Q199.71 53.74 198.62 53.74ZM228.38 53.74L228.38 53.74Q227.47 53.74 226.80 53.10Q226.13 52.46 226.13 51.36L226.13 51.36L226.13 20.44Q226.13 16.16 227.59 12.93Q229.05 9.70 231.92 7.90Q234.79 6.10 238.94 6.10L238.94 6.10Q239.97 6.10 240.64 6.71Q241.32 7.32 241.32 8.23L241.32 8.23Q241.32 9.15 240.64 9.76Q239.97 10.37 238.94 10.37L238.94 10.37Q236.19 10.37 234.39 11.62Q232.59 12.87 231.71 15.10Q230.82 17.32 230.82 20.19L230.82 20.19L230.82 51.36Q230.82 52.46 230.18 53.10Q229.54 53.74 228.38 53.74ZM238.14 25.68L222.22 25.68Q221.25 25.68 220.67 25.10Q220.09 24.52 220.09 23.67L220.09 23.67Q220.09 22.75 220.67 22.17Q221.25 21.59 222.22 21.59L222.22 21.59L238.14 21.59Q239.12 21.59 239.70 22.17Q240.28 22.75 240.28 23.67L240.28 23.67Q240.28 24.52 239.70 25.10Q239.12 25.68 238.14 25.68L238.14 25.68Z" transform="translate(0, 0)"></path></g></svg></svg>